<?xml version="1.0" encoding="UTF-8" standalone="no"?>
<svg
   viewBox="0 0 261.76 226.69"
   version="1.1"
   id="svg2"
   sodipodi:docname="logo.svg"
   xml:space="preserve"
   inkscape:version="1.4.2 (f4327f4, 2025-05-13)"
   xmlns:inkscape="http://www.inkscape.org/namespaces/inkscape"
   xmlns:sodipodi="http://sodipodi.sourceforge.net/DTD/sodipodi-0.dtd"
   xmlns="http://www.w3.org/2000/svg"
   xmlns:svg="http://www.w3.org/2000/svg"><defs
     id="defs2" /><sodipodi:namedview
     id="namedview2"
     pagecolor="#ffffff"
     bordercolor="#000000"
     borderopacity="0.25"
     inkscape:showpageshadow="2"
     inkscape:pageopacity="0.0"
     inkscape:pagecheckerboard="0"
     inkscape:deskcolor="#d1d1d1"
     inkscape:zoom="0.46215118"
     inkscape:cx="-643.72875"
     inkscape:cy="29.211221"
     inkscape:window-width="1920"
     inkscape:window-height="1009"
     inkscape:window-x="-8"
     inkscape:window-y="-8"
     inkscape:window-maximized="1"
     inkscape:current-layer="svg2" /><path
     style="fill:#000000;stroke-width:1.07776"
     d="m 92.387571,193.75337 c 0.002,-1.88282 5.24868,-4.10272 9.696379,-4.10272 4.69347,0 5.25849,-0.35996 13.11088,-8.35266 l 8.20604,-8.35267 -2.84251,-8.87453 c -2.81603,-8.79187 -2.90241,-8.9104 -9.27531,-12.727 C 92.696601,140.21275 83.352851,127.38769 76.259744,103.27141 68.60297,77.238686 62.786429,72.487307 39.806967,73.4941 c -6.098163,0.267176 -10.705601,0.117779 -10.238751,-0.331996 2.666773,-2.569229 15.849091,-5.591196 27.25402,-6.24782 11.991916,-0.69042 12.18435,-0.739824 5.927698,-1.52188 -7.461682,-0.932677 -21.899535,1.200346 -27.408885,4.049341 -5.263678,2.721955 -5.071443,1.364496 0.501451,-3.540961 5.116483,-4.503708 13.888766,-8.098261 23.135262,-9.479963 3.499283,-0.522898 6.105291,-1.86938 9.357682,-4.834961 7.997194,-7.291969 18.940057,-9.94901 30.818497,-7.483056 7.737889,1.606378 14.265679,5.983605 30.067569,20.161871 14.06036,12.61567 54.74419,53.427995 71.01158,71.235865 6.09555,6.67278 13.44218,13.64633 16.32585,15.49677 2.88366,1.85045 5.07424,3.53324 4.86795,3.73954 -0.63283,0.63283 -18.78525,-1.65298 -35.81194,-4.50956 -28.39191,-4.76334 -50.00305,-10.90651 -63.50439,-18.05175 -7.74678,-4.09979 -17.16261,-12.49831 -21.28758,-18.98764 -3.451009,-5.42906 -4.105889,-4.18451 -0.984299,1.87058 7.556599,14.65794 25.784229,25.63044 54.039259,32.53007 12.94268,3.16049 41.13687,7.95086 54.90892,9.32939 l 7.00546,0.70121 12.3573,12.17129 c 12.26592,12.0813 12.34236,12.1878 10.33716,14.40352 -3.95001,4.36471 -13.53802,8.14476 -20.53894,8.09743 -10.80325,-0.0731 -16.24596,-4.06713 -29.44446,-21.60751 l -5.73368,-7.61986 -14.20494,0.43618 c -7.81272,0.2399 -14.74222,0.60279 -15.39891,0.80641 -0.65668,0.20362 -1.4714,1.75744 -1.81049,3.45291 -0.40271,2.01359 -3.90099,6.25074 -10.08701,12.21748 l -9.47048,9.13477 4.58413,0.61655 c 2.52125,0.33909 5.38072,1.41315 6.35435,2.38678 1.64182,1.64182 -0.12033,1.79257 -24.28969,2.07787 -14.33297,0.16919 -26.059559,-0.0287 -26.059089,-0.4396 z m 37.213549,-9.22209 c 10.58348,-10.06427 10.69923,-10.26887 9.12328,-16.12725 -1.8789,-6.98453 -2.81221,-7.69923 -3.72191,-2.85012 -0.59671,3.18073 -2.7998,6.16394 -9.94277,13.46346 -8.37223,8.55573 -8.9543,9.4195 -6.64339,9.85853 5.13299,0.97521 5.90646,0.67476 11.18479,-4.34462 z M 111.25284,85.237705 c 2.36911,-0.657704 6.97496,-1.246875 10.23519,-1.309268 4.59603,-0.08796 5.32239,-0.307295 3.23329,-0.976343 -7.78106,-2.49193 -16.17736,-0.272711 -22.36003,5.90996 -2.521229,2.521228 -4.584049,5.069044 -4.584049,5.661814 0,0.59277 2.06282,-0.985059 4.584049,-3.506287 2.72433,-2.724322 6.33158,-5.069192 8.89155,-5.779876 z M 82.034155,61.064264 c 0.951755,-1.55468 0.781393,-2.255197 -0.841687,-3.46097 -3.746261,-2.783067 -7.986291,1.424396 -4.723484,4.687202 1.72926,1.72926 4.071846,1.213095 5.565171,-1.226232 z"
     id="path2" /></svg>
